<svg width="1040" height="670" viewBox="0 0 1040 670" fill="none" xmlns="http://www.w3.org/2000/svg">
<g filter="url(#filter0_d)">
<rect x="40" y="20" width="960" height="590" fill="white"/>
</g>
<path d="M168.894 125H162.302V111.289H149.448V125H142.856V93.0078H149.448V105.972H162.302V93.0078H168.894V125ZM188.032 125C187.739 124.429 187.527 123.718 187.395 122.869C185.857 124.583 183.857 125.439 181.396 125.439C179.067 125.439 177.134 124.766 175.596 123.418C174.072 122.07 173.311 120.371 173.311 118.32C173.311 115.801 174.241 113.867 176.101 112.52C177.976 111.172 180.679 110.491 184.209 110.476H187.131V109.114C187.131 108.015 186.846 107.136 186.274 106.477C185.718 105.818 184.832 105.488 183.616 105.488C182.546 105.488 181.704 105.745 181.089 106.257C180.488 106.77 180.188 107.473 180.188 108.367H173.838C173.838 106.99 174.263 105.715 175.112 104.543C175.962 103.372 177.163 102.456 178.716 101.797C180.269 101.123 182.012 100.786 183.945 100.786C186.875 100.786 189.197 101.526 190.911 103.005C192.639 104.47 193.503 106.536 193.503 109.202V119.507C193.518 121.763 193.833 123.469 194.448 124.626V125H188.032ZM182.781 120.583C183.718 120.583 184.583 120.378 185.374 119.968C186.165 119.543 186.75 118.979 187.131 118.276V114.189H184.758C181.58 114.189 179.888 115.288 179.683 117.485L179.661 117.859C179.661 118.65 179.939 119.302 180.496 119.814C181.052 120.327 181.814 120.583 182.781 120.583ZM219.058 125H212.686V106.367H204.731V125H198.381V101.226H219.058V125ZM238.24 101.226H244.59V125H238.24V110.322L230.286 125H223.914V101.226H230.286V115.881L238.24 101.226ZM255.796 101.226V119.88H262.322V101.226H268.694V119.88H275.22V101.226H281.57V125H249.446V101.226H255.796ZM300.994 101.226H307.344V125H300.994V110.322L293.04 125H286.667V101.226H293.04V115.881L300.994 101.226ZM331.931 106.323H324.307V125H317.935V106.323H310.442V101.226H331.931V106.323ZM344.675 125.439C341.189 125.439 338.347 124.37 336.15 122.231C333.967 120.093 332.876 117.244 332.876 113.684V113.069C332.876 110.681 333.337 108.55 334.26 106.675C335.183 104.785 336.487 103.335 338.171 102.324C339.871 101.299 341.804 100.786 343.972 100.786C347.224 100.786 349.78 101.812 351.641 103.862C353.516 105.913 354.453 108.821 354.453 112.585V115.178H339.314C339.519 116.731 340.134 117.976 341.16 118.914C342.2 119.851 343.511 120.32 345.093 120.32C347.539 120.32 349.451 119.434 350.828 117.661L353.948 121.155C352.996 122.502 351.707 123.557 350.081 124.319C348.455 125.066 346.653 125.439 344.675 125.439ZM343.95 105.928C342.69 105.928 341.665 106.353 340.874 107.202C340.098 108.052 339.6 109.268 339.38 110.85H348.213V110.344C348.184 108.938 347.803 107.854 347.07 107.092C346.338 106.316 345.298 105.928 343.95 105.928ZM389.895 125H383.523V115.859H375.635V125H369.285V101.226H375.635V110.762H383.523V101.226H389.895V125ZM408.594 125C408.301 124.429 408.088 123.718 407.957 122.869C406.418 124.583 404.419 125.439 401.958 125.439C399.629 125.439 397.695 124.766 396.157 123.418C394.634 122.07 393.872 120.371 393.872 118.32C393.872 115.801 394.802 113.867 396.663 112.52C398.538 111.172 401.24 110.491 404.771 110.476H407.693V109.114C407.693 108.015 407.407 107.136 406.836 106.477C406.279 105.818 405.393 105.488 404.177 105.488C403.108 105.488 402.266 105.745 401.65 106.257C401.05 106.77 400.75 107.473 400.75 108.367H394.399C394.399 106.99 394.824 105.715 395.674 104.543C396.523 103.372 397.725 102.456 399.277 101.797C400.83 101.123 402.573 100.786 404.507 100.786C407.437 100.786 409.758 101.526 411.472 103.005C413.201 104.47 414.065 106.536 414.065 109.202V119.507C414.08 121.763 414.395 123.469 415.01 124.626V125H408.594ZM403.342 120.583C404.28 120.583 405.144 120.378 405.935 119.968C406.726 119.543 407.312 118.979 407.693 118.276V114.189H405.32C402.141 114.189 400.449 115.288 400.244 117.485L400.222 117.859C400.222 118.65 400.5 119.302 401.057 119.814C401.614 120.327 402.375 120.583 403.342 120.583ZM433.423 117.507L439.641 101.226H447.595V125H441.245V110.41L435.554 125H431.292L425.71 110.652V125H419.36V101.226H427.249L433.423 117.507Z" fill="black"/>
<rect x="141" y="201" width="358" height="48" rx="2" stroke="#D7DCDE" stroke-width="2"/>
<mask id="mask0" mask-type="alpha" maskUnits="userSpaceOnUse" x="140" y="200" width="360" height="50">
<rect x="141" y="201" width="358" height="48" rx="2" stroke="#D7DCDE" stroke-width="2"/>
</mask>
<g mask="url(#mask0)">
<rect x="141" y="201" width="358" height="48" rx="2" fill="white" stroke="#D7DCDE" stroke-width="2"/>
</g>
<path d="M141.016 187V175.625H145C146.38 175.625 147.427 175.891 148.141 176.422C148.854 176.948 149.211 177.721 149.211 178.742C149.211 179.299 149.068 179.792 148.781 180.219C148.495 180.641 148.096 180.951 147.586 181.148C148.169 181.294 148.628 181.589 148.961 182.031C149.299 182.474 149.469 183.016 149.469 183.656C149.469 184.75 149.12 185.578 148.422 186.141C147.724 186.703 146.729 186.99 145.438 187H141.016ZM143.359 182.047V185.117H145.367C145.919 185.117 146.349 184.987 146.656 184.727C146.969 184.461 147.125 184.096 147.125 183.633C147.125 182.591 146.586 182.062 145.508 182.047H143.359ZM143.359 180.391H145.094C146.276 180.37 146.867 179.898 146.867 178.977C146.867 178.461 146.716 178.091 146.414 177.867C146.117 177.638 145.646 177.523 145 177.523H143.359V180.391ZM155.984 187C155.88 186.797 155.805 186.544 155.758 186.242C155.211 186.852 154.5 187.156 153.625 187.156C152.797 187.156 152.109 186.917 151.563 186.437C151.021 185.958 150.75 185.354 150.75 184.625C150.75 183.729 151.081 183.042 151.742 182.562C152.409 182.083 153.37 181.841 154.625 181.836H155.664V181.352C155.664 180.961 155.563 180.648 155.359 180.414C155.161 180.18 154.846 180.062 154.414 180.062C154.034 180.062 153.734 180.154 153.516 180.336C153.302 180.518 153.195 180.768 153.195 181.086H150.938C150.938 180.596 151.089 180.143 151.391 179.727C151.693 179.31 152.12 178.984 152.672 178.75C153.224 178.51 153.844 178.391 154.531 178.391C155.573 178.391 156.398 178.654 157.008 179.18C157.622 179.701 157.93 180.435 157.93 181.383V185.047C157.935 185.849 158.047 186.456 158.266 186.867V187H155.984ZM154.117 185.43C154.451 185.43 154.758 185.357 155.039 185.211C155.32 185.06 155.529 184.859 155.664 184.609V183.156H154.82C153.69 183.156 153.089 183.547 153.016 184.328L153.008 184.461C153.008 184.742 153.107 184.974 153.305 185.156C153.503 185.339 153.773 185.43 154.117 185.43ZM161.922 178.547V185.18H164.242V178.547H166.508V185.18H168.828V178.547H171.086V187H159.664V178.547H161.922ZM176.789 187.156C175.549 187.156 174.539 186.776 173.758 186.016C172.982 185.255 172.594 184.242 172.594 182.977V182.758C172.594 181.909 172.758 181.151 173.086 180.484C173.414 179.812 173.878 179.297 174.477 178.937C175.081 178.573 175.768 178.391 176.539 178.391C177.695 178.391 178.604 178.755 179.266 179.484C179.932 180.214 180.266 181.247 180.266 182.586V183.508H174.883C174.956 184.06 175.174 184.503 175.539 184.836C175.909 185.169 176.375 185.336 176.938 185.336C177.807 185.336 178.487 185.021 178.977 184.391L180.086 185.633C179.747 186.112 179.289 186.487 178.711 186.758C178.133 187.023 177.492 187.156 176.789 187.156ZM176.531 180.219C176.083 180.219 175.719 180.37 175.438 180.672C175.161 180.974 174.984 181.406 174.906 181.969H178.047V181.789C178.036 181.289 177.901 180.904 177.641 180.633C177.38 180.357 177.01 180.219 176.531 180.219ZM190.633 178.547H192.891V187H190.633V181.781L187.805 187H185.539V178.547H187.805V183.758L190.633 178.547ZM199.766 184.336L201.977 178.547H204.805V187H202.547V181.812L200.523 187H199.008L197.023 181.898V187H194.766V178.547H197.57L199.766 184.336ZM213.82 178.547V187H211.57V184.078H210.141L208.516 187H206.227L208.07 183.695C207.565 183.461 207.175 183.143 206.898 182.742C206.628 182.341 206.492 181.885 206.492 181.375C206.492 180.557 206.807 179.888 207.438 179.367C208.073 178.841 208.922 178.568 209.984 178.547H213.82ZM210.023 182.5H211.57V180.359H210.102C209.701 180.359 209.375 180.466 209.125 180.68C208.875 180.888 208.75 181.143 208.75 181.445C208.75 181.747 208.87 181.997 209.109 182.195C209.349 182.393 209.654 182.495 210.023 182.5ZM215.836 185.891C215.836 185.531 215.956 185.24 216.195 185.016C216.44 184.792 216.745 184.68 217.109 184.68C217.479 184.68 217.784 184.792 218.023 185.016C218.268 185.24 218.391 185.531 218.391 185.891C218.391 186.245 218.271 186.534 218.031 186.758C217.792 186.977 217.484 187.086 217.109 187.086C216.74 187.086 216.435 186.977 216.195 186.758C215.956 186.534 215.836 186.245 215.836 185.891ZM215.836 179.492C215.836 179.133 215.956 178.841 216.195 178.617C216.44 178.393 216.745 178.281 217.109 178.281C217.479 178.281 217.784 178.393 218.023 178.617C218.268 178.841 218.391 179.133 218.391 179.492C218.391 179.846 218.271 180.135 218.031 180.359C217.792 180.578 217.484 180.687 217.109 180.687C216.74 180.687 216.435 180.578 216.195 180.359C215.956 180.135 215.836 179.846 215.836 179.492Z" fill="black"/>
<path opacity="0.5" d="M164.492 218.625H165.992V230H164.492V221.234L158.891 230H157.383V218.625H158.891V227.391L164.492 218.625ZM173.367 228.086L176.242 221.547H178.047V230H176.602V223.852L173.867 230H172.867L170.078 223.719V230H168.633V221.547H170.508L173.367 228.086ZM186.836 221.547V230H185.383V226.711H183.203L181.211 230H179.648L181.773 226.492C181.232 226.294 180.815 225.99 180.523 225.578C180.237 225.161 180.094 224.677 180.094 224.125C180.094 223.354 180.383 222.734 180.961 222.266C181.539 221.792 182.313 221.552 183.281 221.547H186.836ZM181.547 224.141C181.547 224.552 181.688 224.885 181.969 225.141C182.25 225.391 182.622 225.518 183.086 225.523H185.383V222.719H183.305C182.768 222.719 182.341 222.852 182.023 223.117C181.706 223.378 181.547 223.719 181.547 224.141ZM198.969 219.766H199.211C200.07 219.771 200.854 219.971 201.563 220.367C202.271 220.763 202.82 221.31 203.211 222.008C203.607 222.701 203.805 223.477 203.805 224.336C203.805 225.201 203.607 225.984 203.211 226.687C202.815 227.391 202.268 227.94 201.57 228.336C200.872 228.727 200.096 228.927 199.242 228.937H198.969V230.469H197.516V228.937H197.297C196.427 228.937 195.635 228.74 194.922 228.344C194.214 227.948 193.661 227.401 193.266 226.703C192.875 226.005 192.68 225.221 192.68 224.352C192.68 223.482 192.875 222.698 193.266 222C193.661 221.302 194.214 220.755 194.922 220.359C195.635 219.964 196.427 219.766 197.297 219.766H197.516V218.156H198.969V219.766ZM197.297 220.945C196.318 220.945 195.542 221.247 194.969 221.852C194.401 222.451 194.117 223.284 194.117 224.352C194.117 225.424 194.401 226.26 194.969 226.859C195.536 227.453 196.318 227.75 197.313 227.75H197.516V220.945H197.297ZM198.969 220.945V227.75H199.188C200.182 227.75 200.958 227.445 201.516 226.836C202.078 226.221 202.359 225.388 202.359 224.336C202.359 223.294 202.078 222.469 201.516 221.859C200.958 221.25 200.172 220.945 199.156 220.945H198.969ZM210.688 230C210.604 229.833 210.536 229.536 210.484 229.109C209.813 229.807 209.01 230.156 208.078 230.156C207.245 230.156 206.56 229.922 206.023 229.453C205.492 228.979 205.227 228.38 205.227 227.656C205.227 226.776 205.56 226.094 206.227 225.609C206.898 225.12 207.841 224.875 209.055 224.875H210.461V224.211C210.461 223.706 210.31 223.305 210.008 223.008C209.706 222.706 209.26 222.555 208.672 222.555C208.156 222.555 207.724 222.685 207.375 222.945C207.026 223.206 206.852 223.521 206.852 223.891H205.398C205.398 223.469 205.547 223.062 205.844 222.672C206.146 222.276 206.552 221.964 207.063 221.734C207.578 221.505 208.143 221.391 208.758 221.391C209.732 221.391 210.495 221.635 211.047 222.125C211.599 222.609 211.885 223.279 211.906 224.133V228.023C211.906 228.799 212.005 229.417 212.203 229.875V230H210.688ZM208.289 228.898C208.742 228.898 209.172 228.781 209.578 228.547C209.984 228.312 210.279 228.008 210.461 227.633V225.898H209.328C207.557 225.898 206.672 226.417 206.672 227.453C206.672 227.906 206.823 228.26 207.125 228.516C207.427 228.771 207.815 228.898 208.289 228.898ZM219.039 228.086L221.914 221.547H223.719V230H222.273V223.852L219.539 230H218.539L215.75 223.719V230H214.305V221.547H216.18L219.039 228.086ZM231.516 221.547H232.961V230H231.516V223.836L227.617 230H226.172V221.547H227.617V227.719L231.516 221.547ZM242.211 221.547V230H240.758V222.742H237.883L237.711 225.906C237.617 227.359 237.372 228.398 236.977 229.023C236.586 229.648 235.964 229.974 235.109 230H234.531V228.727L234.945 228.695C235.414 228.643 235.75 228.372 235.953 227.883C236.156 227.393 236.286 226.487 236.344 225.164L236.5 221.547H242.211ZM250 221.547H251.445V230H250V223.836L246.102 230H244.656V221.547H246.102V227.719L250 221.547ZM260.227 221.547V230H258.773V226.711H256.594L254.602 230H253.039L255.164 226.492C254.622 226.294 254.206 225.99 253.914 225.578C253.628 225.161 253.484 224.677 253.484 224.125C253.484 223.354 253.773 222.734 254.352 222.266C254.93 221.792 255.703 221.552 256.672 221.547H260.227ZM254.938 224.141C254.938 224.552 255.078 224.885 255.359 225.141C255.641 225.391 256.013 225.518 256.477 225.523H258.773V222.719H256.695C256.159 222.719 255.732 222.852 255.414 223.117C255.096 223.378 254.938 223.719 254.938 224.141Z" fill="#444444"/>
<rect x="541" y="201" width="358" height="48" rx="2" stroke="#D7DCDE" stroke-width="2"/>
<mask id="mask1" mask-type="alpha" maskUnits="userSpaceOnUse" x="540" y="200" width="360" height="50">
<rect x="541" y="201" width="358" height="48" rx="2" stroke="#D7DCDE" stroke-width="2"/>
</mask>
<g mask="url(#mask1)">
<rect x="541" y="201" width="358" height="48" rx="2" fill="white" stroke="#D7DCDE" stroke-width="2"/>
</g>
<path d="M541.016 187V175.625H545C546.38 175.625 547.427 175.891 548.141 176.422C548.854 176.948 549.211 177.721 549.211 178.742C549.211 179.299 549.068 179.792 548.781 180.219C548.495 180.641 548.096 180.951 547.586 181.148C548.169 181.294 548.628 181.589 548.961 182.031C549.299 182.474 549.469 183.016 549.469 183.656C549.469 184.75 549.12 185.578 548.422 186.141C547.724 186.703 546.729 186.99 545.438 187H541.016ZM543.359 182.047V185.117H545.367C545.919 185.117 546.349 184.987 546.656 184.727C546.969 184.461 547.125 184.096 547.125 183.633C547.125 182.591 546.586 182.062 545.508 182.047H543.359ZM543.359 180.391H545.094C546.276 180.37 546.867 179.898 546.867 178.977C546.867 178.461 546.716 178.091 546.414 177.867C546.117 177.638 545.646 177.523 545 177.523H543.359V180.391ZM555.984 187C555.88 186.797 555.805 186.544 555.758 186.242C555.211 186.852 554.5 187.156 553.625 187.156C552.797 187.156 552.109 186.917 551.563 186.437C551.021 185.958 550.75 185.354 550.75 184.625C550.75 183.729 551.081 183.042 551.742 182.562C552.409 182.083 553.37 181.841 554.625 181.836H555.664V181.352C555.664 180.961 555.563 180.648 555.359 180.414C555.161 180.18 554.846 180.062 554.414 180.062C554.034 180.062 553.734 180.154 553.516 180.336C553.302 180.518 553.195 180.768 553.195 181.086H550.938C550.938 180.596 551.089 180.143 551.391 179.727C551.693 179.31 552.12 178.984 552.672 178.75C553.224 178.51 553.844 178.391 554.531 178.391C555.573 178.391 556.398 178.654 557.008 179.18C557.622 179.701 557.93 180.435 557.93 181.383V185.047C557.935 185.849 558.047 186.456 558.266 186.867V187H555.984ZM554.117 185.43C554.451 185.43 554.758 185.357 555.039 185.211C555.32 185.06 555.529 184.859 555.664 184.609V183.156H554.82C553.69 183.156 553.089 183.547 553.016 184.328L553.008 184.461C553.008 184.742 553.107 184.974 553.305 185.156C553.503 185.339 553.773 185.43 554.117 185.43ZM561.922 178.547V185.18H564.242V178.547H566.508V185.18H568.828V178.547H571.086V187H559.664V178.547H561.922ZM580.773 187.156C579.534 187.156 578.523 186.776 577.742 186.016C576.966 185.255 576.578 184.242 576.578 182.977V182.758C576.578 181.909 576.742 181.151 577.07 180.484C577.398 179.812 577.862 179.297 578.461 178.937C579.065 178.573 579.753 178.391 580.523 178.391C581.68 178.391 582.589 178.755 583.25 179.484C583.917 180.214 584.25 181.247 584.25 182.586V183.508H578.867C578.94 184.06 579.159 184.503 579.523 184.836C579.893 185.169 580.359 185.336 580.922 185.336C581.792 185.336 582.471 185.021 582.961 184.391L584.07 185.633C583.732 186.112 583.273 186.487 582.695 186.758C582.117 187.023 581.477 187.156 580.773 187.156ZM580.516 180.219C580.068 180.219 579.703 180.37 579.422 180.672C579.146 180.974 578.969 181.406 578.891 181.969H582.031V181.789C582.021 181.289 581.885 180.904 581.625 180.633C581.365 180.357 580.995 180.219 580.516 180.219ZM587.656 178.547L587.727 179.492C588.326 178.758 589.135 178.391 590.156 178.391C591.245 178.391 591.992 178.82 592.398 179.68C592.992 178.82 593.839 178.391 594.938 178.391C595.854 178.391 596.536 178.659 596.984 179.195C597.432 179.727 597.656 180.529 597.656 181.602V187H595.391V181.609C595.391 181.13 595.297 180.781 595.109 180.562C594.922 180.339 594.591 180.227 594.117 180.227C593.44 180.227 592.971 180.549 592.711 181.195L592.719 187H590.461V181.617C590.461 181.128 590.365 180.773 590.172 180.555C589.979 180.336 589.651 180.227 589.188 180.227C588.547 180.227 588.083 180.492 587.797 181.023V187H585.539V178.547H587.656ZM604.297 187C604.193 186.797 604.117 186.544 604.07 186.242C603.523 186.852 602.813 187.156 601.938 187.156C601.109 187.156 600.422 186.917 599.875 186.437C599.333 185.958 599.063 185.354 599.063 184.625C599.063 183.729 599.393 183.042 600.055 182.562C600.721 182.083 601.682 181.841 602.938 181.836H603.977V181.352C603.977 180.961 603.875 180.648 603.672 180.414C603.474 180.18 603.159 180.062 602.727 180.062C602.346 180.062 602.047 180.154 601.828 180.336C601.615 180.518 601.508 180.768 601.508 181.086H599.25C599.25 180.596 599.401 180.143 599.703 179.727C600.005 179.31 600.432 178.984 600.984 178.75C601.536 178.51 602.156 178.391 602.844 178.391C603.885 178.391 604.711 178.654 605.32 179.18C605.935 179.701 606.242 180.435 606.242 181.383V185.047C606.247 185.849 606.359 186.456 606.578 186.867V187H604.297ZM602.43 185.43C602.763 185.43 603.07 185.357 603.352 185.211C603.633 185.06 603.841 184.859 603.977 184.609V183.156H603.133C602.003 183.156 601.401 183.547 601.328 184.328L601.32 184.461C601.32 184.742 601.419 184.974 601.617 185.156C601.815 185.339 602.086 185.43 602.43 185.43ZM610.359 187H608.094V178.547H610.359V187ZM607.961 176.359C607.961 176.021 608.073 175.742 608.297 175.523C608.526 175.305 608.836 175.195 609.227 175.195C609.612 175.195 609.919 175.305 610.148 175.523C610.378 175.742 610.492 176.021 610.492 176.359C610.492 176.703 610.375 176.984 610.141 177.203C609.911 177.422 609.607 177.531 609.227 177.531C608.846 177.531 608.539 177.422 608.305 177.203C608.076 176.984 607.961 176.703 607.961 176.359ZM614.609 187H612.344V175H614.609V187ZM616.586 185.891C616.586 185.531 616.706 185.24 616.945 185.016C617.19 184.792 617.495 184.68 617.859 184.68C618.229 184.68 618.534 184.792 618.773 185.016C619.018 185.24 619.141 185.531 619.141 185.891C619.141 186.245 619.021 186.534 618.781 186.758C618.542 186.977 618.234 187.086 617.859 187.086C617.49 187.086 617.185 186.977 616.945 186.758C616.706 186.534 616.586 186.245 616.586 185.891ZM616.586 179.492C616.586 179.133 616.706 178.841 616.945 178.617C617.19 178.393 617.495 178.281 617.859 178.281C618.229 178.281 618.534 178.393 618.773 178.617C619.018 178.841 619.141 179.133 619.141 179.492C619.141 179.846 619.021 180.135 618.781 180.359C618.542 180.578 618.234 180.687 617.859 180.687C617.49 180.687 617.185 180.578 616.945 180.359C616.706 180.135 616.586 179.846 616.586 179.492Z" fill="black"/>
<path opacity="0.5" d="M560.602 230.156C559.456 230.156 558.523 229.781 557.805 229.031C557.086 228.276 556.727 227.268 556.727 226.008V225.742C556.727 224.904 556.885 224.156 557.203 223.5C557.526 222.839 557.974 222.323 558.547 221.953C559.125 221.578 559.75 221.391 560.422 221.391C561.521 221.391 562.375 221.753 562.984 222.477C563.594 223.201 563.898 224.237 563.898 225.586V226.187H558.172C558.193 227.021 558.435 227.695 558.898 228.211C559.367 228.721 559.961 228.977 560.68 228.977C561.19 228.977 561.622 228.872 561.977 228.664C562.331 228.456 562.641 228.18 562.906 227.836L563.789 228.523C563.081 229.612 562.018 230.156 560.602 230.156ZM560.422 222.578C559.839 222.578 559.349 222.792 558.953 223.219C558.557 223.641 558.313 224.234 558.219 225H562.453V224.891C562.411 224.156 562.214 223.589 561.859 223.187C561.505 222.781 561.026 222.578 560.422 222.578ZM566.938 221.547L566.977 222.484C567.596 221.755 568.432 221.391 569.484 221.391C570.667 221.391 571.471 221.844 571.898 222.75C572.18 222.344 572.544 222.016 572.992 221.766C573.445 221.516 573.979 221.391 574.594 221.391C576.448 221.391 577.391 222.372 577.422 224.336V230H575.977V224.422C575.977 223.818 575.839 223.367 575.563 223.07C575.286 222.768 574.823 222.617 574.172 222.617C573.635 222.617 573.19 222.779 572.836 223.102C572.482 223.419 572.276 223.849 572.219 224.391V230H570.766V224.461C570.766 223.232 570.164 222.617 568.961 222.617C568.013 222.617 567.365 223.021 567.016 223.828V230H565.57V221.547H566.938ZM584.828 230C584.745 229.833 584.677 229.536 584.625 229.109C583.953 229.807 583.151 230.156 582.219 230.156C581.385 230.156 580.701 229.922 580.164 229.453C579.633 228.979 579.367 228.38 579.367 227.656C579.367 226.776 579.701 226.094 580.367 225.609C581.039 225.12 581.982 224.875 583.195 224.875H584.602V224.211C584.602 223.706 584.451 223.305 584.148 223.008C583.846 222.706 583.401 222.555 582.813 222.555C582.297 222.555 581.865 222.685 581.516 222.945C581.167 223.206 580.992 223.521 580.992 223.891H579.539C579.539 223.469 579.688 223.062 579.984 222.672C580.286 222.276 580.693 221.964 581.203 221.734C581.719 221.505 582.284 221.391 582.898 221.391C583.872 221.391 584.635 221.635 585.188 222.125C585.74 222.609 586.026 223.279 586.047 224.133V228.023C586.047 228.799 586.146 229.417 586.344 229.875V230H584.828ZM582.43 228.898C582.883 228.898 583.313 228.781 583.719 228.547C584.125 228.312 584.419 228.008 584.602 227.633V225.898H583.469C581.698 225.898 580.813 226.417 580.813 227.453C580.813 227.906 580.964 228.26 581.266 228.516C581.568 228.771 581.956 228.898 582.43 228.898ZM589.883 230H588.438V221.547H589.883V230ZM588.32 219.305C588.32 219.07 588.391 218.872 588.531 218.711C588.677 218.549 588.891 218.469 589.172 218.469C589.453 218.469 589.667 218.549 589.813 218.711C589.958 218.872 590.031 219.07 590.031 219.305C590.031 219.539 589.958 219.734 589.813 219.891C589.667 220.047 589.453 220.125 589.172 220.125C588.891 220.125 588.677 220.047 588.531 219.891C588.391 219.734 588.32 219.539 588.32 219.305ZM593.773 230H592.328V218H593.773V230ZM608.578 226.078C608.516 227.339 608.203 228.333 607.641 229.062C607.078 229.792 606.326 230.156 605.383 230.156C604.409 230.156 603.784 229.719 603.508 228.844C603.227 229.286 602.904 229.617 602.539 229.836C602.18 230.049 601.807 230.156 601.422 230.156C600.682 230.156 600.122 229.854 599.742 229.25C599.362 228.646 599.221 227.81 599.32 226.742C599.398 225.883 599.594 225.117 599.906 224.445C600.224 223.768 600.63 223.237 601.125 222.852C601.625 222.466 602.148 222.273 602.695 222.273C603.117 222.273 603.495 222.331 603.828 222.445C604.161 222.555 604.536 222.773 604.953 223.102L604.547 227.43C604.448 228.633 604.781 229.234 605.547 229.234C606.135 229.234 606.612 228.943 606.977 228.359C607.341 227.776 607.539 227.016 607.57 226.078C607.669 224.052 607.292 222.508 606.438 221.445C605.589 220.383 604.294 219.852 602.555 219.852C601.508 219.852 600.578 220.112 599.766 220.633C598.953 221.148 598.313 221.896 597.844 222.875C597.375 223.854 597.112 224.984 597.055 226.266C596.992 227.557 597.148 228.68 597.523 229.633C597.898 230.581 598.469 231.305 599.234 231.805C600.005 232.31 600.935 232.563 602.023 232.563C602.492 232.563 602.961 232.505 603.43 232.391C603.904 232.276 604.297 232.128 604.609 231.945L604.898 232.844C604.576 233.047 604.146 233.214 603.609 233.344C603.078 233.474 602.539 233.539 601.992 233.539C600.69 233.539 599.57 233.245 598.633 232.656C597.695 232.073 596.992 231.229 596.523 230.125C596.06 229.026 595.859 227.74 595.922 226.266C595.984 224.833 596.305 223.547 596.883 222.406C597.461 221.26 598.245 220.378 599.234 219.758C600.224 219.133 601.341 218.82 602.586 218.82C603.883 218.82 604.995 219.112 605.922 219.695C606.849 220.279 607.539 221.12 607.992 222.219C608.445 223.318 608.641 224.604 608.578 226.078ZM600.563 226.742C600.49 227.482 600.557 228.049 600.766 228.445C600.979 228.841 601.315 229.039 601.773 229.039C602.086 229.039 602.385 228.906 602.672 228.641C602.964 228.375 603.203 227.995 603.391 227.5L603.398 227.43L603.758 223.5C603.466 223.349 603.154 223.273 602.82 223.273C602.211 223.273 601.706 223.583 601.305 224.203C600.909 224.823 600.661 225.669 600.563 226.742ZM613.977 230.156C612.831 230.156 611.898 229.781 611.18 229.031C610.461 228.276 610.102 227.268 610.102 226.008V225.742C610.102 224.904 610.26 224.156 610.578 223.5C610.901 222.839 611.349 222.323 611.922 221.953C612.5 221.578 613.125 221.391 613.797 221.391C614.896 221.391 615.75 221.753 616.359 222.477C616.969 223.201 617.273 224.237 617.273 225.586V226.187H611.547C611.568 227.021 611.81 227.695 612.273 228.211C612.742 228.721 613.336 228.977 614.055 228.977C614.565 228.977 614.997 228.872 615.352 228.664C615.706 228.456 616.016 228.18 616.281 227.836L617.164 228.523C616.456 229.612 615.393 230.156 613.977 230.156ZM613.797 222.578C613.214 222.578 612.724 222.792 612.328 223.219C611.932 223.641 611.688 224.234 611.594 225H615.828V224.891C615.786 224.156 615.589 223.589 615.234 223.187C614.88 222.781 614.401 222.578 613.797 222.578ZM621.789 224.633L623.664 221.547H625.352L622.586 225.727L625.438 230H623.766L621.813 226.836L619.859 230H618.18L621.031 225.727L618.266 221.547H619.938L621.789 224.633ZM632.109 230C632.026 229.833 631.958 229.536 631.906 229.109C631.234 229.807 630.432 230.156 629.5 230.156C628.667 230.156 627.982 229.922 627.445 229.453C626.914 228.979 626.648 228.38 626.648 227.656C626.648 226.776 626.982 226.094 627.648 225.609C628.32 225.12 629.263 224.875 630.477 224.875H631.883V224.211C631.883 223.706 631.732 223.305 631.43 223.008C631.128 222.706 630.682 222.555 630.094 222.555C629.578 222.555 629.146 222.685 628.797 222.945C628.448 223.206 628.273 223.521 628.273 223.891H626.82C626.82 223.469 626.969 223.062 627.266 222.672C627.568 222.276 627.974 221.964 628.484 221.734C629 221.505 629.565 221.391 630.18 221.391C631.154 221.391 631.917 221.635 632.469 222.125C633.021 222.609 633.307 223.279 633.328 224.133V228.023C633.328 228.799 633.427 229.417 633.625 229.875V230H632.109ZM629.711 228.898C630.164 228.898 630.594 228.781 631 228.547C631.406 228.312 631.701 228.008 631.883 227.633V225.898H630.75C628.979 225.898 628.094 226.417 628.094 227.453C628.094 227.906 628.245 228.26 628.547 228.516C628.849 228.771 629.237 228.898 629.711 228.898ZM636.953 221.547L636.992 222.484C637.612 221.755 638.448 221.391 639.5 221.391C640.682 221.391 641.487 221.844 641.914 222.75C642.195 222.344 642.56 222.016 643.008 221.766C643.461 221.516 643.995 221.391 644.609 221.391C646.464 221.391 647.406 222.372 647.438 224.336V230H645.992V224.422C645.992 223.818 645.854 223.367 645.578 223.07C645.302 222.768 644.839 222.617 644.188 222.617C643.651 222.617 643.206 222.779 642.852 223.102C642.497 223.419 642.292 223.849 642.234 224.391V230H640.781V224.461C640.781 223.232 640.18 222.617 638.977 222.617C638.029 222.617 637.38 223.021 637.031 223.828V230H635.586V221.547H636.953ZM656.766 225.867C656.766 227.154 656.471 228.19 655.883 228.977C655.294 229.763 654.497 230.156 653.492 230.156C652.466 230.156 651.659 229.831 651.07 229.18V233.25H649.625V221.547H650.945L651.016 222.484C651.604 221.755 652.422 221.391 653.469 221.391C654.484 221.391 655.286 221.773 655.875 222.539C656.469 223.305 656.766 224.37 656.766 225.734V225.867ZM655.32 225.703C655.32 224.75 655.117 223.997 654.711 223.445C654.305 222.893 653.747 222.617 653.039 222.617C652.164 222.617 651.508 223.005 651.07 223.781V227.82C651.503 228.591 652.164 228.977 653.055 228.977C653.747 228.977 654.297 228.703 654.703 228.156C655.115 227.604 655.32 226.786 655.32 225.703ZM660.18 230H658.734V218H660.18V230ZM666.008 230.156C664.862 230.156 663.93 229.781 663.211 229.031C662.492 228.276 662.133 227.268 662.133 226.008V225.742C662.133 224.904 662.292 224.156 662.609 223.5C662.932 222.839 663.38 222.323 663.953 221.953C664.531 221.578 665.156 221.391 665.828 221.391C666.927 221.391 667.781 221.753 668.391 222.477C669 223.201 669.305 224.237 669.305 225.586V226.187H663.578C663.599 227.021 663.841 227.695 664.305 228.211C664.773 228.721 665.367 228.977 666.086 228.977C666.596 228.977 667.029 228.872 667.383 228.664C667.737 228.456 668.047 228.18 668.313 227.836L669.195 228.523C668.487 229.612 667.425 230.156 666.008 230.156ZM665.828 222.578C665.245 222.578 664.755 222.792 664.359 223.219C663.964 223.641 663.719 224.234 663.625 225H667.859V224.891C667.818 224.156 667.62 223.589 667.266 223.187C666.911 222.781 666.432 222.578 665.828 222.578ZM671.016 229.242C671.016 228.992 671.089 228.784 671.234 228.617C671.385 228.451 671.609 228.367 671.906 228.367C672.203 228.367 672.427 228.451 672.578 228.617C672.734 228.784 672.813 228.992 672.813 229.242C672.813 229.482 672.734 229.682 672.578 229.844C672.427 230.005 672.203 230.086 671.906 230.086C671.609 230.086 671.385 230.005 671.234 229.844C671.089 229.682 671.016 229.482 671.016 229.242ZM678.594 228.977C679.109 228.977 679.56 228.82 679.945 228.508C680.331 228.195 680.544 227.805 680.586 227.336H681.953C681.927 227.82 681.76 228.281 681.453 228.719C681.146 229.156 680.734 229.505 680.219 229.766C679.708 230.026 679.167 230.156 678.594 230.156C677.443 230.156 676.526 229.773 675.844 229.008C675.167 228.237 674.828 227.185 674.828 225.852V225.609C674.828 224.786 674.979 224.055 675.281 223.414C675.583 222.773 676.016 222.276 676.578 221.922C677.146 221.568 677.815 221.391 678.586 221.391C679.534 221.391 680.32 221.674 680.945 222.242C681.576 222.81 681.911 223.547 681.953 224.453H680.586C680.544 223.906 680.336 223.458 679.961 223.109C679.591 222.755 679.133 222.578 678.586 222.578C677.852 222.578 677.281 222.844 676.875 223.375C676.474 223.901 676.273 224.664 676.273 225.664V225.937C676.273 226.911 676.474 227.661 676.875 228.187C677.276 228.714 677.849 228.977 678.594 228.977ZM683.195 225.695C683.195 224.867 683.357 224.122 683.68 223.461C684.008 222.799 684.461 222.289 685.039 221.93C685.622 221.57 686.287 221.391 687.031 221.391C688.182 221.391 689.112 221.789 689.82 222.586C690.534 223.383 690.891 224.443 690.891 225.766V225.867C690.891 226.69 690.732 227.43 690.414 228.086C690.102 228.737 689.651 229.245 689.063 229.609C688.479 229.974 687.807 230.156 687.047 230.156C685.901 230.156 684.971 229.758 684.258 228.961C683.55 228.164 683.195 227.109 683.195 225.797V225.695ZM684.648 225.867C684.648 226.805 684.865 227.557 685.297 228.125C685.734 228.693 686.318 228.977 687.047 228.977C687.781 228.977 688.365 228.69 688.797 228.117C689.229 227.539 689.445 226.732 689.445 225.695C689.445 224.768 689.224 224.018 688.781 223.445C688.344 222.867 687.76 222.578 687.031 222.578C686.318 222.578 685.742 222.862 685.305 223.43C684.867 223.997 684.648 224.81 684.648 225.867ZM694.063 221.547L694.102 222.484C694.721 221.755 695.557 221.391 696.609 221.391C697.792 221.391 698.596 221.844 699.023 222.75C699.305 222.344 699.669 222.016 700.117 221.766C700.57 221.516 701.104 221.391 701.719 221.391C703.573 221.391 704.516 222.372 704.547 224.336V230H703.102V224.422C703.102 223.818 702.964 223.367 702.688 223.07C702.412 222.768 701.948 222.617 701.297 222.617C700.76 222.617 700.315 222.779 699.961 223.102C699.607 223.419 699.401 223.849 699.344 224.391V230H697.891V224.461C697.891 223.232 697.289 222.617 696.086 222.617C695.138 222.617 694.49 223.021 694.141 223.828V230H692.695V221.547H694.063Z" fill="#444444"/>
<rect x="142" y="312" width="758" height="116" rx="2" stroke="#D7DCDE" stroke-width="2"/>
<mask id="mask2" mask-type="alpha" maskUnits="userSpaceOnUse" x="141" y="311" width="760" height="118">
<rect x="142" y="312" width="758" height="116" rx="2" stroke="#D7DCDE" stroke-width="2"/>
</mask>
<g mask="url(#mask2)">
<rect x="142" y="312" width="758" height="116" rx="2" fill="white" stroke="#D7DCDE" stroke-width="2"/>
</g>
<path d="M150.578 288.523H147.094V298H144.75V288.523H141.313V286.625H150.578V288.523ZM154.961 298.156C153.721 298.156 152.711 297.776 151.93 297.016C151.154 296.255 150.766 295.242 150.766 293.977V293.758C150.766 292.909 150.93 292.151 151.258 291.484C151.586 290.812 152.049 290.297 152.648 289.937C153.253 289.573 153.94 289.391 154.711 289.391C155.867 289.391 156.776 289.755 157.438 290.484C158.104 291.214 158.438 292.247 158.438 293.586V294.508H153.055C153.128 295.06 153.346 295.503 153.711 295.836C154.081 296.169 154.547 296.336 155.109 296.336C155.979 296.336 156.659 296.021 157.148 295.391L158.258 296.633C157.919 297.112 157.461 297.487 156.883 297.758C156.305 298.023 155.664 298.156 154.961 298.156ZM154.703 291.219C154.255 291.219 153.891 291.37 153.609 291.672C153.333 291.974 153.156 292.406 153.078 292.969H156.219V292.789C156.208 292.289 156.073 291.904 155.813 291.633C155.552 291.357 155.182 291.219 154.703 291.219ZM163.039 294.883H162.133V298H159.875V289.547H162.133V292.727H162.938L164.781 289.547H167.633L164.867 293.57L167.891 298H164.883L163.039 294.883ZM172.133 296.336C172.549 296.336 172.888 296.221 173.148 295.992C173.409 295.763 173.544 295.458 173.555 295.078H175.672C175.667 295.651 175.51 296.177 175.203 296.656C174.896 297.13 174.474 297.5 173.938 297.766C173.406 298.026 172.818 298.156 172.172 298.156C170.964 298.156 170.01 297.773 169.313 297.008C168.615 296.237 168.266 295.174 168.266 293.82V293.672C168.266 292.37 168.612 291.331 169.305 290.555C169.997 289.779 170.948 289.391 172.156 289.391C173.214 289.391 174.06 289.693 174.695 290.297C175.336 290.896 175.661 291.695 175.672 292.695H173.555C173.544 292.258 173.409 291.904 173.148 291.633C172.888 291.357 172.544 291.219 172.117 291.219C171.591 291.219 171.193 291.411 170.922 291.797C170.656 292.177 170.523 292.797 170.523 293.656V293.891C170.523 294.76 170.656 295.385 170.922 295.766C171.188 296.146 171.591 296.336 172.133 296.336ZM183.977 291.359H181.266V298H179V291.359H176.336V289.547H183.977V291.359ZM196.453 298H194.188V291.375H191.359V298H189.102V289.547H196.453V298ZM203.273 289.547H205.531V298H203.273V292.781L200.445 298H198.18V289.547H200.445V294.758L203.273 289.547ZM210.773 296.336C211.19 296.336 211.529 296.221 211.789 295.992C212.05 295.763 212.185 295.458 212.195 295.078H214.313C214.307 295.651 214.151 296.177 213.844 296.656C213.536 297.13 213.115 297.5 212.578 297.766C212.047 298.026 211.458 298.156 210.813 298.156C209.604 298.156 208.651 297.773 207.953 297.008C207.255 296.237 206.906 295.174 206.906 293.82V293.672C206.906 292.37 207.253 291.331 207.945 290.555C208.638 289.779 209.589 289.391 210.797 289.391C211.854 289.391 212.701 289.693 213.336 290.297C213.977 290.896 214.302 291.695 214.313 292.695H212.195C212.185 292.258 212.05 291.904 211.789 291.633C211.529 291.357 211.185 291.219 210.758 291.219C210.232 291.219 209.833 291.411 209.563 291.797C209.297 292.177 209.164 292.797 209.164 293.656V293.891C209.164 294.76 209.297 295.385 209.563 295.766C209.828 296.146 210.232 296.336 210.773 296.336ZM218.016 292.023H219.633C220.362 292.023 221.003 292.146 221.555 292.391C222.107 292.635 222.529 292.987 222.82 293.445C223.117 293.898 223.266 294.427 223.266 295.031C223.266 295.922 222.935 296.641 222.273 297.187C221.617 297.729 220.721 298 219.586 298H215.75V289.547H218.016V292.023ZM218.016 293.836V296.195H219.617C220.065 296.195 220.409 296.091 220.648 295.883C220.888 295.674 221.008 295.391 221.008 295.031C221.008 294.667 220.891 294.378 220.656 294.164C220.422 293.945 220.076 293.836 219.617 293.836H218.016ZM229.688 295.336L231.898 289.547H234.727V298H232.469V292.812L230.445 298H228.93L226.945 292.898V298H224.688V289.547H227.492L229.688 295.336ZM241.594 298C241.49 297.797 241.414 297.544 241.367 297.242C240.82 297.852 240.109 298.156 239.234 298.156C238.406 298.156 237.719 297.917 237.172 297.437C236.63 296.958 236.359 296.354 236.359 295.625C236.359 294.729 236.69 294.042 237.352 293.562C238.018 293.083 238.979 292.841 240.234 292.836H241.273V292.352C241.273 291.961 241.172 291.648 240.969 291.414C240.771 291.18 240.456 291.062 240.023 291.062C239.643 291.062 239.344 291.154 239.125 291.336C238.911 291.518 238.805 291.768 238.805 292.086H236.547C236.547 291.596 236.698 291.143 237 290.727C237.302 290.31 237.729 289.984 238.281 289.75C238.833 289.51 239.453 289.391 240.141 289.391C241.182 289.391 242.008 289.654 242.617 290.18C243.232 290.701 243.539 291.435 243.539 292.383V296.047C243.544 296.849 243.656 297.456 243.875 297.867V298H241.594ZM239.727 296.43C240.06 296.43 240.367 296.357 240.648 296.211C240.93 296.06 241.138 295.859 241.273 295.609V294.156H240.43C239.3 294.156 238.698 294.547 238.625 295.328L238.617 295.461C238.617 295.742 238.716 295.974 238.914 296.156C239.112 296.339 239.383 296.43 239.727 296.43ZM245.383 296.891C245.383 296.531 245.503 296.24 245.742 296.016C245.987 295.792 246.292 295.68 246.656 295.68C247.026 295.68 247.331 295.792 247.57 296.016C247.815 296.24 247.938 296.531 247.938 296.891C247.938 297.245 247.818 297.534 247.578 297.758C247.339 297.977 247.031 298.086 246.656 298.086C246.286 298.086 245.982 297.977 245.742 297.758C245.503 297.534 245.383 297.245 245.383 296.891ZM245.383 290.492C245.383 290.133 245.503 289.841 245.742 289.617C245.987 289.393 246.292 289.281 246.656 289.281C247.026 289.281 247.331 289.393 247.57 289.617C247.815 289.841 247.938 290.133 247.938 290.492C247.938 290.846 247.818 291.135 247.578 291.359C247.339 291.578 247.031 291.687 246.656 291.687C246.286 291.687 245.982 291.578 245.742 291.359C245.503 291.135 245.383 290.846 245.383 290.492Z" fill="black"/>
<path opacity="0.5" d="M158.32 341V329.625H162.039C163.273 329.625 164.201 329.88 164.82 330.391C165.445 330.901 165.758 331.656 165.758 332.656C165.758 333.187 165.607 333.659 165.305 334.07C165.003 334.477 164.591 334.792 164.07 335.016C164.685 335.187 165.169 335.516 165.523 336C165.883 336.479 166.063 337.052 166.063 337.719C166.063 338.74 165.732 339.542 165.07 340.125C164.409 340.708 163.474 341 162.266 341H158.32ZM159.82 335.68V339.773H162.297C162.995 339.773 163.544 339.594 163.945 339.234C164.352 338.87 164.555 338.37 164.555 337.734C164.555 336.365 163.81 335.68 162.32 335.68H159.82ZM159.82 334.477H162.086C162.742 334.477 163.266 334.312 163.656 333.984C164.052 333.656 164.25 333.211 164.25 332.648C164.25 332.023 164.068 331.57 163.703 331.289C163.339 331.003 162.784 330.859 162.039 330.859H159.82V334.477ZM175.422 339.977C175.938 339.977 176.388 339.82 176.773 339.508C177.159 339.195 177.372 338.805 177.414 338.336H178.781C178.755 338.82 178.589 339.281 178.281 339.719C177.974 340.156 177.563 340.505 177.047 340.766C176.536 341.026 175.995 341.156 175.422 341.156C174.271 341.156 173.354 340.773 172.672 340.008C171.995 339.237 171.656 338.185 171.656 336.852V336.609C171.656 335.786 171.807 335.055 172.109 334.414C172.411 333.773 172.844 333.276 173.406 332.922C173.974 332.568 174.643 332.391 175.414 332.391C176.362 332.391 177.148 332.674 177.773 333.242C178.404 333.81 178.74 334.547 178.781 335.453H177.414C177.372 334.906 177.164 334.458 176.789 334.109C176.419 333.755 175.961 333.578 175.414 333.578C174.68 333.578 174.109 333.844 173.703 334.375C173.302 334.901 173.102 335.664 173.102 336.664V336.937C173.102 337.911 173.302 338.661 173.703 339.187C174.104 339.714 174.677 339.977 175.422 339.977ZM180.539 341V332.547H183.836C184.961 332.547 185.823 332.745 186.422 333.141C187.026 333.531 187.328 334.107 187.328 334.867C187.328 335.258 187.211 335.612 186.977 335.93C186.742 336.242 186.396 336.482 185.938 336.648C186.448 336.768 186.857 337.003 187.164 337.352C187.477 337.701 187.633 338.117 187.633 338.602C187.633 339.378 187.346 339.971 186.773 340.383C186.206 340.794 185.401 341 184.359 341H180.539ZM181.984 337.289V339.836H184.375C184.979 339.836 185.43 339.724 185.727 339.5C186.029 339.276 186.18 338.961 186.18 338.555C186.18 337.711 185.56 337.289 184.32 337.289H181.984ZM181.984 336.133H183.852C185.206 336.133 185.883 335.737 185.883 334.945C185.883 334.154 185.242 333.745 183.961 333.719H181.984V336.133ZM189.164 336.695C189.164 335.867 189.326 335.122 189.648 334.461C189.977 333.799 190.43 333.289 191.008 332.93C191.591 332.57 192.255 332.391 193 332.391C194.151 332.391 195.081 332.789 195.789 333.586C196.503 334.383 196.859 335.443 196.859 336.766V336.867C196.859 337.69 196.701 338.43 196.383 339.086C196.07 339.737 195.62 340.245 195.031 340.609C194.448 340.974 193.776 341.156 193.016 341.156C191.87 341.156 190.94 340.758 190.227 339.961C189.518 339.164 189.164 338.109 189.164 336.797V336.695ZM190.617 336.867C190.617 337.805 190.833 338.557 191.266 339.125C191.703 339.693 192.286 339.977 193.016 339.977C193.75 339.977 194.333 339.69 194.766 339.117C195.198 338.539 195.414 337.732 195.414 336.695C195.414 335.768 195.193 335.018 194.75 334.445C194.313 333.867 193.729 333.578 193 333.578C192.286 333.578 191.711 333.862 191.273 334.43C190.836 334.997 190.617 335.81 190.617 336.867ZM202.383 333.031C203.445 333.031 204.294 333.388 204.93 334.102C205.57 334.81 205.891 335.745 205.891 336.906V337.039C205.891 337.836 205.737 338.549 205.43 339.18C205.122 339.805 204.68 340.292 204.102 340.641C203.529 340.984 202.867 341.156 202.117 341.156C200.982 341.156 200.068 340.779 199.375 340.023C198.682 339.263 198.336 338.245 198.336 336.969V336.266C198.336 334.49 198.664 333.078 199.32 332.031C199.982 330.984 200.956 330.346 202.242 330.117C202.971 329.987 203.464 329.828 203.719 329.641C203.974 329.453 204.102 329.195 204.102 328.867H205.289C205.289 329.518 205.141 330.026 204.844 330.391C204.552 330.755 204.083 331.013 203.438 331.164L202.359 331.406C201.5 331.609 200.854 331.953 200.422 332.437C199.995 332.917 199.716 333.557 199.586 334.359C200.352 333.474 201.284 333.031 202.383 333.031ZM202.102 334.219C201.393 334.219 200.831 334.458 200.414 334.937C199.997 335.411 199.789 336.07 199.789 336.914V337.039C199.789 337.945 199.997 338.664 200.414 339.195C200.836 339.721 201.404 339.984 202.117 339.984C202.836 339.984 203.404 339.719 203.82 339.187C204.237 338.656 204.445 337.88 204.445 336.859C204.445 336.062 204.234 335.424 203.813 334.945C203.396 334.461 202.826 334.219 202.102 334.219ZM207.133 336.695C207.133 335.867 207.294 335.122 207.617 334.461C207.945 333.799 208.398 333.289 208.977 332.93C209.56 332.57 210.224 332.391 210.969 332.391C212.12 332.391 213.049 332.789 213.758 333.586C214.471 334.383 214.828 335.443 214.828 336.766V336.867C214.828 337.69 214.669 338.43 214.352 339.086C214.039 339.737 213.589 340.245 213 340.609C212.417 340.974 211.745 341.156 210.984 341.156C209.839 341.156 208.909 340.758 208.195 339.961C207.487 339.164 207.133 338.109 207.133 336.797V336.695ZM208.586 336.867C208.586 337.805 208.802 338.557 209.234 339.125C209.672 339.693 210.255 339.977 210.984 339.977C211.719 339.977 212.302 339.69 212.734 339.117C213.167 338.539 213.383 337.732 213.383 336.695C213.383 335.768 213.161 335.018 212.719 334.445C212.281 333.867 211.698 333.578 210.969 333.578C210.255 333.578 209.68 333.862 209.242 334.43C208.805 334.997 208.586 335.81 208.586 336.867ZM216.008 339.82L216.508 339.203C217.07 338.474 217.391 337.38 217.469 335.922L217.602 332.547H223.047V339.82H224.133V343.484H222.688V341H216.789V343.484H215.344L215.352 339.82H216.008ZM217.719 339.82H221.602V333.883H219L218.914 335.898C218.826 337.581 218.427 338.888 217.719 339.82ZM232.641 341H231.195V337.391H227.313V341H225.859V332.547H227.313V336.211H231.195V332.547H232.641V341ZM234.586 336.695C234.586 335.867 234.747 335.122 235.07 334.461C235.398 333.799 235.852 333.289 236.43 332.93C237.013 332.57 237.677 332.391 238.422 332.391C239.573 332.391 240.503 332.789 241.211 333.586C241.925 334.383 242.281 335.443 242.281 336.766V336.867C242.281 337.69 242.122 338.43 241.805 339.086C241.492 339.737 241.042 340.245 240.453 340.609C239.87 340.974 239.198 341.156 238.438 341.156C237.292 341.156 236.362 340.758 235.648 339.961C234.94 339.164 234.586 338.109 234.586 336.797V336.695ZM236.039 336.867C236.039 337.805 236.255 338.557 236.688 339.125C237.125 339.693 237.708 339.977 238.438 339.977C239.172 339.977 239.755 339.69 240.188 339.117C240.62 338.539 240.836 337.732 240.836 336.695C240.836 335.768 240.615 335.018 240.172 334.445C239.734 333.867 239.151 333.578 238.422 333.578C237.708 333.578 237.133 333.862 236.695 334.43C236.258 334.997 236.039 335.81 236.039 336.867ZM249.563 332.547H251.008V341H249.563V334.836L245.664 341H244.219V332.547H245.664V338.719L249.563 332.547ZM249.953 329.469C249.953 330.099 249.737 330.607 249.305 330.992C248.878 331.372 248.315 331.562 247.617 331.562C246.919 331.562 246.354 331.37 245.922 330.984C245.49 330.599 245.273 330.094 245.273 329.469H246.453C246.453 329.833 246.552 330.12 246.75 330.328C246.948 330.531 247.237 330.633 247.617 330.633C247.982 330.633 248.266 330.531 248.469 330.328C248.677 330.125 248.781 329.839 248.781 329.469H249.953ZM256.984 336.93C256.984 335.518 257.258 334.409 257.805 333.602C258.352 332.794 259.102 332.391 260.055 332.391C260.497 332.391 260.885 332.466 261.219 332.617V329H262.664V332.664C263.029 332.482 263.456 332.391 263.945 332.391C264.904 332.391 265.656 332.794 266.203 333.602C266.75 334.409 267.023 335.573 267.023 337.094C267.023 338.339 266.75 339.328 266.203 340.062C265.661 340.797 264.914 341.164 263.961 341.164C263.456 341.164 263.023 341.081 262.664 340.914V344.25H261.219V340.937C260.875 341.089 260.482 341.164 260.039 341.164C259.091 341.164 258.344 340.797 257.797 340.062C257.255 339.328 256.984 338.323 256.984 337.047V336.93ZM265.578 336.93C265.578 335.867 265.396 335.044 265.031 334.461C264.667 333.872 264.164 333.578 263.523 333.578C263.195 333.578 262.909 333.63 262.664 333.734V339.852C262.898 339.94 263.19 339.984 263.539 339.984C264.185 339.984 264.685 339.734 265.039 339.234C265.398 338.734 265.578 337.966 265.578 336.93ZM258.43 337.094C258.43 338.042 258.599 338.76 258.938 339.25C259.276 339.74 259.763 339.984 260.398 339.984C260.701 339.984 260.974 339.937 261.219 339.844V333.711C261 333.622 260.732 333.578 260.414 333.578C259.779 333.578 259.289 333.862 258.945 334.43C258.602 334.997 258.43 335.885 258.43 337.094ZM268.523 336.695C268.523 335.867 268.685 335.122 269.008 334.461C269.336 333.799 269.789 333.289 270.367 332.93C270.951 332.57 271.615 332.391 272.359 332.391C273.51 332.391 274.44 332.789 275.148 333.586C275.862 334.383 276.219 335.443 276.219 336.766V336.867C276.219 337.69 276.06 338.43 275.742 339.086C275.43 339.737 274.979 340.245 274.391 340.609C273.807 340.974 273.135 341.156 272.375 341.156C271.229 341.156 270.3 340.758 269.586 339.961C268.878 339.164 268.523 338.109 268.523 336.797V336.695ZM269.977 336.867C269.977 337.805 270.193 338.557 270.625 339.125C271.063 339.693 271.646 339.977 272.375 339.977C273.109 339.977 273.693 339.69 274.125 339.117C274.557 338.539 274.773 337.732 274.773 336.695C274.773 335.768 274.552 335.018 274.109 334.445C273.672 333.867 273.089 333.578 272.359 333.578C271.646 333.578 271.07 333.862 270.633 334.43C270.195 334.997 269.977 335.81 269.977 336.867ZM285.172 336.867C285.172 338.154 284.878 339.19 284.289 339.977C283.701 340.763 282.904 341.156 281.898 341.156C280.872 341.156 280.065 340.831 279.477 340.18V344.25H278.031V332.547H279.352L279.422 333.484C280.01 332.755 280.828 332.391 281.875 332.391C282.891 332.391 283.693 332.773 284.281 333.539C284.875 334.305 285.172 335.37 285.172 336.734V336.867ZM283.727 336.703C283.727 335.75 283.523 334.997 283.117 334.445C282.711 333.893 282.154 333.617 281.445 333.617C280.57 333.617 279.914 334.005 279.477 334.781V338.82C279.909 339.591 280.57 339.977 281.461 339.977C282.154 339.977 282.703 339.703 283.109 339.156C283.521 338.604 283.727 337.786 283.727 336.703ZM291.883 339.086L294.758 332.547H296.563V341H295.117V334.852L292.383 341H291.383L288.594 334.719V341H287.148V332.547H289.023L291.883 339.086ZM302.398 341.156C301.253 341.156 300.32 340.781 299.602 340.031C298.883 339.276 298.523 338.268 298.523 337.008V336.742C298.523 335.904 298.682 335.156 299 334.5C299.323 333.839 299.771 333.323 300.344 332.953C300.922 332.578 301.547 332.391 302.219 332.391C303.318 332.391 304.172 332.753 304.781 333.477C305.391 334.201 305.695 335.237 305.695 336.586V337.187H299.969C299.99 338.021 300.232 338.695 300.695 339.211C301.164 339.721 301.758 339.977 302.477 339.977C302.987 339.977 303.419 339.872 303.773 339.664C304.128 339.456 304.438 339.18 304.703 338.836L305.586 339.523C304.878 340.612 303.815 341.156 302.398 341.156ZM302.219 333.578C301.635 333.578 301.146 333.792 300.75 334.219C300.354 334.641 300.109 335.234 300.016 336H304.25V335.891C304.208 335.156 304.01 334.589 303.656 334.187C303.302 333.781 302.823 333.578 302.219 333.578Z" fill="#444444"/>
<rect x="141" y="476" width="259" height="50" rx="3" fill="#FB565A"/>
<path d="M234.703 501.609C234.703 502.724 234.51 503.703 234.125 504.547C233.74 505.385 233.187 506.031 232.469 506.484C231.755 506.932 230.932 507.156 230 507.156C229.078 507.156 228.255 506.932 227.531 506.484C226.812 506.031 226.255 505.388 225.859 504.555C225.469 503.721 225.271 502.76 225.266 501.672V501.031C225.266 499.922 225.461 498.943 225.852 498.094C226.247 497.245 226.802 496.596 227.516 496.148C228.234 495.695 229.057 495.469 229.984 495.469C230.911 495.469 231.732 495.693 232.445 496.141C233.164 496.583 233.719 497.224 234.109 498.062C234.5 498.896 234.698 499.867 234.703 500.977V501.609ZM232.727 501.016C232.727 499.755 232.487 498.789 232.008 498.117C231.534 497.445 230.859 497.109 229.984 497.109C229.13 497.109 228.461 497.445 227.977 498.117C227.497 498.784 227.253 499.729 227.242 500.953V501.609C227.242 502.859 227.484 503.826 227.969 504.508C228.458 505.19 229.135 505.531 230 505.531C230.875 505.531 231.547 505.198 232.016 504.531C232.49 503.865 232.727 502.891 232.727 501.609V501.016ZM244.219 497.219H240.672V507H238.711V497.219H235.195V495.625H244.219V497.219ZM254.719 507H252.75V497.219H247.742V507H245.773V495.625H254.719V507ZM259.086 502.773V507H257.109V495.625H261.461C262.732 495.625 263.74 495.956 264.484 496.617C265.234 497.279 265.609 498.154 265.609 499.242C265.609 500.357 265.242 501.224 264.508 501.844C263.779 502.464 262.755 502.773 261.437 502.773H259.086ZM259.086 501.187H261.461C262.164 501.187 262.701 501.023 263.07 500.695C263.44 500.362 263.625 499.883 263.625 499.258C263.625 498.643 263.437 498.154 263.062 497.789C262.687 497.419 262.172 497.229 261.516 497.219H259.086V501.187ZM272.32 504.352H267.914L266.992 507H264.938L269.234 495.625H271.008L275.313 507H273.25L272.32 504.352ZM268.469 502.758H271.766L270.117 498.039L268.469 502.758ZM276.609 507V495.625H280.508C281.794 495.625 282.773 495.883 283.445 496.398C284.117 496.914 284.453 497.682 284.453 498.703C284.453 499.224 284.313 499.693 284.031 500.109C283.75 500.526 283.339 500.849 282.797 501.078C283.411 501.245 283.885 501.56 284.219 502.023C284.557 502.482 284.727 503.034 284.727 503.68C284.727 504.747 284.383 505.568 283.695 506.141C283.013 506.714 282.034 507 280.758 507H276.609ZM278.586 501.867V505.422H280.781C281.401 505.422 281.885 505.268 282.234 504.961C282.583 504.654 282.758 504.227 282.758 503.68C282.758 502.497 282.154 501.893 280.945 501.867H278.586ZM278.586 500.414H280.523C281.138 500.414 281.617 500.276 281.961 500C282.31 499.719 282.484 499.323 282.484 498.812C282.484 498.25 282.323 497.844 282 497.594C281.682 497.344 281.185 497.219 280.508 497.219H278.586V500.414ZM293.672 495.625H295.648V507H293.672V498.898L288.68 507H286.703V495.625H288.68V503.734L293.672 495.625ZM306 497.219H302.453V507H300.492V497.219H296.977V495.625H306V497.219ZM309.57 499.977H311.898C312.732 499.977 313.458 500.12 314.078 500.406C314.698 500.693 315.169 501.099 315.492 501.625C315.815 502.151 315.977 502.76 315.977 503.453C315.977 504.516 315.615 505.37 314.891 506.016C314.172 506.661 313.19 506.99 311.945 507H307.594V495.625H309.57V499.977ZM309.57 501.562V505.422H311.891C312.557 505.422 313.076 505.242 313.445 504.883C313.82 504.518 314.008 504.036 314.008 503.437C314.008 502.865 313.826 502.411 313.461 502.078C313.096 501.745 312.591 501.573 311.945 501.562H309.57Z" fill="white"/>
<g clip-path="url(#clip0)">
<path d="M902.339 108.509L909.716 101.132C910.106 100.742 910.106 100.106 909.716 99.7165L908.301 98.3003C907.912 97.911 907.275 97.911 906.886 98.3003L899.509 105.678L892.132 98.3013C891.742 97.912 891.106 97.912 890.716 98.3013L889.301 99.7165C888.912 100.106 888.912 100.742 889.301 101.132L896.678 108.509L889.301 115.886C888.912 116.275 888.912 116.912 889.301 117.301L890.717 118.716C891.107 119.106 891.743 119.106 892.133 118.716L899.51 111.339L906.887 118.716C907.276 119.106 907.913 119.106 908.302 118.716L909.717 117.301C910.107 116.912 910.107 116.275 909.717 115.886L902.339 108.509Z" fill="#FB565A" fill-opacity="0.3"/>
</g>
<defs>
<filter id="filter0_d" x="0" y="0" width="1040" height="670" filterUnits="userSpaceOnUse" color-interpolation-filters="sRGB">
<feFlood flood-opacity="0" result="BackgroundImageFix"/>
<feColorMatrix in="SourceAlpha" type="matrix" values="0 0 0 0 0 0 0 0 0 0 0 0 0 0 0 0 0 0 127 0"/>
<feOffset dy="20"/>
<feGaussianBlur stdDeviation="20"/>
<feColorMatrix type="matrix" values="0 0 0 0 0 0 0 0 0 0 0 0 0 0 0 0 0 0 0.4 0"/>
<feBlend mode="normal" in2="BackgroundImageFix" result="effect1_dropShadow"/>
<feBlend mode="normal" in="SourceGraphic" in2="effect1_dropShadow" result="shape"/>
</filter>
<clipPath id="clip0">
<rect width="21" height="21" fill="white" transform="translate(889 98)"/>
</clipPath>
</defs>
</svg>
